# xmcd CD database file
#
# Track frame offsets:
#	150
#	18472
#	34172
#	56054
#	70072
#
# Disc length: 1374 seconds
#
# Revision: 0
# Processed by: cddbd v1.5.2PL0 Copyright (c) Steve Scherf et al.
# Submitted via: CDex 1.77
#
DISCID=3e055c05
DTITLE=Miss Liberty  - La Belle Vie 
DYEAR=2017
DGENRE=Jazz
TTITLE0=La Belle Vie
TTITLE1=Moon River
TTITLE2=My Funny Valentine
TTITLE3=I wanna be loved by you
TTITLE4=Summertime (Lullaby)
EXTD=YEAR: 2017
EXTT0=
EXTT1=
EXTT2=
EXTT3=
EXTT4=
PLAYORDER=
